<svg version="1" xmlns="http://www.w3.org/2000/svg" width="400" height="400" viewBox="0 0 300.000000 300.000000"><path d="M43 150.1c0 77 .3 139.8.8 139.6 44.2-25.8 89.4-51.9 91.5-52.8 1.5-.7 2.7-1.6 2.7-2.1 0-.4.4-.8.9-.8.4 0 8.6-4.5 18.2-10.1 9.6-5.5 20.2-11.7 23.5-13.6l6.2-3.6v-31.8c0-17.6-.2-31.9-.3-31.9-.1 0-5.1 2.8-11.1 6.1-6 3.4-13.1 7.4-15.9 8.9-2.7 1.6-17.3 9.8-32.2 18.3-20.3 11.5-27.3 15.1-27.4 13.9 0-1-.1-41.9-.1-91L99.7 10H43v140.1z"/><path d="M253 12.9c-4.2 2.6-26 15.3-34 19.8-5.5 3.2-14.4 8.3-16 9.2-2.9 1.8-40.5 23.6-42.5 24.7-1.1.6-8.5 4.9-16.5 9.5-8.1 4.7-15.3 8.9-16 9.2-.8.4-4.2 2.4-7.5 4.5l-6.1 3.7.1 31.7c0 17.5.1 31.8.2 31.8.3 0 37.2-20.8 44.1-24.9 2.9-1.7 5.5-3.1 5.7-3.1.2 0 2.6-1.3 5.3-2.9 5.7-3.4 12.2-7.1 21.6-12.3 3.8-2.1 7.5-4.3 8.3-4.9 1-.9 1.3-.8 1.4.2.1.8.2 41.7.3 90.9l.1 89.5 28.3.3 28.2.2V150c0-77-.1-140-.2-139.9-.2 0-2.3 1.3-4.8 2.8z"/></svg>